<mxfile host="Electron" modified="2024-02-21T15:11:26.596Z" agent="Mozilla/5.0 (X11; Linux x86_64) AppleWebKit/537.36 (KHTML, like Gecko) draw.io/22.1.21 Chrome/120.0.6099.109 Electron/28.1.0 Safari/537.36" etag="A9MV1E0v5htttWo6MWI4" version="22.1.21" type="device">
  <diagram name="Seite-1" id="bQF0WdLwfjLezcu6DH8f">
    <mxGraphModel dx="954" dy="1198" grid="1" gridSize="10" guides="1" tooltips="1" connect="1" arrows="1" fold="1" page="1" pageScale="1" pageWidth="1654" pageHeight="1169" math="0" shadow="0">
      <root>
        <mxCell id="0" />
        <mxCell id="1" style="locked=1;" parent="0" />
        <mxCell id="5isMwdoa0sT_e5EpmKYh-1" value="" style="shape=image;verticalLabelPosition=bottom;labelBackgroundColor=default;verticalAlign=top;aspect=fixed;imageAspect=0;image=data:image/png,iVBORw0KGgoAAAANSUhEUgAAAg4AAAEdCAYAAABkEe+RAAABg2lDQ1BJQ0MgcHJvZmlsZQAAKJF9kT1Iw0AcxV/TiiKVDmYQcchQnayIijhqFYpQIdQKrTqYXPoFTRqSFBdHwbXg4Mdi1cHFWVcHV0EQ/ABxdnBSdJES/9cUWsR4cNyPd/ced+8AoV5muh0aB3TDsVKJuJTJrkrdrxAgIoIQxhRmm3OynITv+LpHgK93MZ7lf+7P0aflbAYEJOJZZloO8Qbx9KZjct4nFllR0YjPiUctuiDxI9dVj984F5os8EzRSqfmiUViqdDBagezoqUTTxFHNd2gfCHjscZ5i7NerrLWPfkLwzljZZnrNIeQwCKWIEOCiipKKMNBjFaDFBsp2o/7+AebfplcKrlKYORYQAU6lKYf/A9+d2vnJye8pHAc6Hpx3Y9hoHsXaNRc9/vYdRsnQPAZuDLa/kodmPkkvdbWokdAZBu4uG5r6h5wuQMMPJmKpTSlIE0hnwfez+ibskD/LdC75vXW2sfpA5CmrpI3wMEhMFKg7HWfd/d09vbvmVZ/P02CcpjU/xtNAAAABmJLR0QA/wD/AP+gvaeTAAAACXBIWXMAAC4jAAAuIwF4pT92AAAAB3RJTUUH6AIVCwcIZgs2lgAAABl0RVh0Q29tbWVudABDcmVhdGVkIHdpdGggR0lNUFeBDhcAACAASURBVHja7J13WFRHF4ffpYMiig27IlixVwQVe0djRxZFU000lqhJLF8s0URNjMYYYzSCsiAoYC/EFhuK2Cs27CgWEOksu/v9gVxZRUQpsjDv8+zDcPe2mZ177++eOXOOLDw8XINAIMgRvv9d5mFUfKGrl0FqPKkpidlaVwZYGsRTwtQAJycnLCwsRMcQCAohBqIJBALBm9BosvdeoSeDUvpxlCxmjJOTE+bm5qLxBAIhHAQCgSAT0YCGUvrxlCxmTMeOHSlWrNhr66hQcd3oOg8MHlA3uS7lVeVFwwkEQjgIBIKiKBosDeIpZW5Khw4dMDMz0/peg4Ytxbcwu/RsovWipeVNk5uy4PECrJXWohEFAp277gUCgeC9bh5qAlb/RmmLYnTs2JEHDx68ts6KkiuYUHaClmgAOGV8ij6V+hBuGC4aUiDQMWTCOVIgyD4aNBw0Pcgx02PcNriNjdIGp0Qnru4yLZTOkfrKOFTKpNeXyzSUNojHQKbG2dkZExMTunTpwu7duwHw9vamlXsrelbqSaos9Y37b5rcFP8If9GxBAIdQgxVCATZJFYvlillphBULEhr+R8l/+BLgxUYUKpItIM+akrrx1OmlAVOTk4YGRkBSKIBICwsjHiz+CxFQ7rl4ZH+I8qpyokOJhDoCGKoQiDIJnNKz3lNNKTzRP9J0XjTkKkpbRBHuTKl6NChgyQaXmurOXMIMwrL1j6vGF0RnUsgEMJBIChcXDa6jH/xom1SN9RTY6kfh1W5Mjg5OWFoaJjl+hVSK2RrvxVSK7B27VrRyQQCIRwEgsLDKZNTRbr+BjIVlvpxVLQqR/v27TEwePsoZ4ukFm9dx1JlSQ1lDcLDXzpJfvnll6LDCQRCOAgEus1j/cdFtu6GMhWlDeKpVMGKtm3boq+vn63t2ie2p2NCxyzXmfV0FvroM3PmTGmZs7OzVG7atKlUDgsLEx1RIBDCQSDQDeqm1C2S9dYnzdJQpVJFHBwcsi0aAGTIWPhkIV0Tur72nbHGmOlPp9Mrvtdr33Xv3l0q79u3TypPnDhRKnt4eIhOKRB8IMR0TIEgC7p3786uXbuI0YvBycqJGOOYTNczSDXCJsWWzz0+JzEuMdeOf/PmTQ4cOIC7u3u2twkNDSUyMpLevXtne5vg4GBiY2Pp1q3bKw9/DVWrVKFVq1bo6b3fe4YGDcdMjxFqHMpDg4fUSamDU6ITVZVV37td5syZw4wZMwD4/PPPWbFiheisAoEQDgLBh6FDhw7s378fgKtXr1KrVi0AgsyC+LL8l2h4/ZIx1Biy4cEG7gbeJS4urtC0RbVq1WjVqhUymazAnuPu3bvp0qULAA0bNuTcuXMAXLx4kfr164sOLRAI4SAQ5D5t2rQhODgYgNu3b1OtWrXM3+ZNQplaZio3DG9IyxonN+bnJz9TK6WWaMgPTFxcHMWLFwegT58+bN26FYB//vmHjz/+WDSQQJALCB8HQZGlWbNmUjkwMFDrLftNtEhqwe57uwm5E8L6B+s5efskgRGBuS4aPv74Y8nq8a7s378/Rw9JV1dXjh49qpO/abpoACTRAPDw4UOp/Mknn4jOL8hzJkyYgLW1NZMnT87Rfvz8/LC2tqZt27YFpm4icqSgSGFnZ8eFCxcA2LNnj7TcysrqnfZTVlWWsqqyeXae//zzz3tv26FDBzp06PDe23t7exe6333atGlSediwYZn2h3PnztGwYUNxkRRBoqKiWLRoEfv37+fJkycUL16cypUr07FjR8aNG/de+6xevTqNGzematWXvjyNGjUiNjaWJUuW0KdPnzyvl7+/PwEBAdy4cYOYmBhKly5N+/btmThxImXLvv/9S1gcBIWS1NSXoY5tbW2l8vHjx6VyqVKlREMVQTp27Jhpf/jf//4nlYWzZdFi/Pjx+Pj4EB8fT8uWLalRowb37t1j7969773PcePGERgYyNixYz9YvXbv3k1YWBh2dna0a9eOx48f4+fnx2effZaj/QrhICg0xMe/TDJVr149qZxx/v+raZ8LEuHh4XTu3DnH+7ly5Qo9evTI8X5SUlKoU6dOoe4zGfvDpk2bpPKzZ8+k8qhRo8TFVYhRq9XS0Nzy5cvx8vLC39+f0NBQFi1aBKTNbrK2tsbGxoaYmLSZVc7OzlhbW7Nt2zYAfv31V6ytraWHcsahiufPn2NtbU1sbKwkKqytrfn8888BiI2NZeHChXTp0oV69erRrFkzJk2a9Nq5+vn54ejoSIMGDRgzZozWPS8zPv30U4KDg1m9ejUrV67k66+/BuDs2bNafVwIB0GRIioqSiq3bt1aKl+9elUqv0vsgQ+JtbW11vDJ+1K7dm127tyZ4/0YGRkV2aBL3377rVQePny4VK5b92U8j9OnT4sLsBCgp6dHlSpVgDSr04IFC9ixYwcxMTHY2NgAUKNGDSpWrIharebEiRPExcVx+fJlAI4dO6b119HRMdNraeTIkVKYdicnJ0aOHEmnTp1QqVQMGzaM5cuX8+DBA3r06IGjoyPXrl3T2sfDhw/59ddfqVOnDklJSezYseOtQ5rNmzfH1NRU62UAoHTp0pibm793mwkfB4HOERERQcWKFQHo2rUrJ06cAOD8+fOicQS5jpOTk1Q+c+aMVP7xxx8JCAiQ3lRHjx4tGktHWbp0KVOnTuX8+fPcuHFDEhTDhg1j1qxZyGQyHBwc2LBhAyEhIchkMlQqFTY2Nhw7doykpCRpGrCDg8Nr+zcxMWHGjBn4+/ujVCr56KOPJB+HAwcOcPHiRQAUCgWNGzcGtIdb0y0jfn5+1KhRg8mTJxMQECAdU6FQaDl4u7u7a0VgBdi1axcrVqzAyMiIX375JUcvVAXO4lCYPVEF78/Nmzel8uDBg6VyumjQZaZOnYqvr2+u7S82NpZGjRrl6jkGBQWJByNgbGwsldNFA6AVuyOjhUKgG9SvX5/Nmzdz9OhRli5dirOzM2q1GoVCwcGDB7UsCSEhIRw7dgwLCwvc3NwIDw9n165dKJVKrKysqFmz5jsd+/79+wAYGhpKogF4LR9M2bJlqVGjBgBlypQBXg7PRkREcObMGekTGRkpbafRaPjtt9/46quvMDc3Z+3atbRv3z5nVpqcbBwVFcX06dNxcHCgdu3aNGvWjL59+7JkyZL33uebPFGtra21plflJeHh4YwaNYoWLVpgbW2NtbU1R44cEVdXPpPRTJ5xCt3hw4cLVT3nzZvH0KFDc21/5ubmnD17NlfPsVu3bixfvvzl2w9qwg3DCTYNJko/qsj31YwvOhkdz9KDhwGcPHlSXNQFlICAAGJjYylfvjy9evXi559/loYV0n0BHBwckMlkXLp0iX379tGiRQvs7e0B+OOPP7TExZtIFwMazcvwSZUqVQJAqVRqXbevWhwyZqN9NSDblClTCA8Plz6ffvqpJGg///xzli5dSq1atdi0aRMtW7bMcXvlSDgUVk/UyMhIbt68qTXPX5A/ZDQFZ8xNkJM+VZDILOqkrp3/tmLbaFW1FZ0rd0ZuJad51eYMqTCEW4a3RAd+5eFx6dIlqfzzzz9L5fQHjaBgMG3aNFq0aEH37t0ZPnw4HTt2RKlUYmZmRvPmzQGwtLSkbt26qFQqwsPDadWqFTY2NpQpU0bK7vo24ZAuElasWMHs2bM5fPgwjo6OUoRTuVzOpEmTmDhxIkOGDMlxvaZOnSr5TZmamvL9998jl8uRy+XcuXMn/4VDYfZEtbe3Z//+/VI9BHlLSEiIVJ49e7ZU3rFjR6Go33XD64wpNwbHKo40qNaAIRWGsNZoLQ0b5V3MgIYNG+ZJ6OuVFiv5utzXPNV/qrU81CSU3pV6C/HwhjdMgA0bNkjldCc1SAu4JfiwTJw4kebNm/P8+XNCQkJISUnBwcEBDw8P6WH/qjBo1aoV8NIpWyaT0aZNmyyP891332Ftbc3Vq1fx9PTkzJkz6Ovr4+Pjw+jRoylfvjzbt2/nwIED0rBETsj4rDtz5gzBwcHSJyf3hxyFnO7YsSO3bt2iZs2adOnSBTs7O+zt7bXmxzs6OhIREcHKlStp1aoVTZo0kbxIf/zxRwYNGsTJkyeZOXMmw4cPZ8KECWzevJkBAwYwZ84cFi5ciEKhQKlU4uTkRI0aNahduzYDBgygX79+XLx4ETMzM7p160Zqaiq3bt1i8+bN+Pn58f3336Ovr0+pUqVo2LAhBw4cQKVSMX78eGlaSlYkJCRgZ2cHgJeXV6ZOL4L34+DBg7Rr1w4AFxcX1q1bVyjrua3YNiaVnUSKLOW17zokdODvyL/RRzdmfYQbhtOjUg+UMuUb12me1Jz1D9aLDv4OHD16VDJ516xZU3LOCwkJkR5OAkFBIkdDFUuXLqVBgwbcuHGDv/76izFjxtCiRQv+97//SWM46Q/bkJAQjh8//l6eqCYmJgB89NFHzJgxg8GDB3P48GEtT9Rff/2VJUuWaDkspVtG/Pz8WLVqFf369QPQ8kTt37+/9NmyZYvoEXnIv//+K5VXr14tlQuraHhg8ICpZaZmKhoA9pvt5x+Lf3SmPnvN9mYpGgBOmJzgif4T0dnfgXTRAHD9+nWpvHjxYqmcE78xgaBACYfC7IkqyB0yOrRmnC7k6elZ6Ovua+5LnF7W5sBVFqvyxO+he/fuWrEscoMwo7BcXU/wOhmd3t4kqF1cXKRyRic7gUAnhENh9UQV5Ax/f3+pnDGg0V9//VWk2uGc8bm3rvNE/wmR+rkvWHft2qXl0Z8blE8tn6vrCbJPxnwJ48ePl8rpAYoAnU1MJihiwqGweqLeu3ePyZMnayXG+fvvv5k8ebKUelmgTcbESBnj/xdlE6tMI8veesh0oj4tklu8dZ1S6lJYK63FBZGHZPR7SPeHyPgiBgjHbkHBFQ6F1RM1OjqagIAANm/eLC07dOgQAQEBWmOQRZ2MfgoZYy4sWLBANA7QKPntQZjKqcpRXpX7b+ijRo3iv//+y9V9OiU44ZTglOU6M5/M1Blnz8Is3o2MjKRyxoBpKpVKNJQg5y9FOZlVISh6ZAyt++OPPzJ9+nTRKG/gkf4julXuRoxezBvX+eHpD4x4PkJn6hSlH8XkMpPZb7Zfa7mhxpBvor/h05hPdcaCUlQ4ceKEZAG2tbWVciCkW24Fgny1OAiKBr/99ptUzjj3V4iGt1sTFjxegJkm84ycveN74/bcLU+OrUGDGnWu79dSZcmqyFWsjlzN6Gej+SjuI76P+p4d93fwWcxnQjQUQNJFA6CVOOnvv/+WygsXLhQNJcg2IsmVIFN+/vlnvvvuu7ROkmGmSk5ziBQlvL29CQsLY+dPO1lacimnTU4TrRdNg5QG9I/tT+/43rn+oA01CWVZyWWEqELACBqrGzPi+Qi6x3fPtWPIkGU5bPHnn3+SkJCQaTA2QcFh7dq1Url48eJSecCAAdK09uTkZK38HEWZVJWGaw8SSFSq0Kg1aDQa1Bpe/NWg0ahRS8vT/moAjTrtf14sTysjrZO+j4zraqTtNWjUGY7Bi+3VL7bj5bqvPdz1ZNhYFcO+QY1cbwsxVCGQmDVrFj/88IP0NpIx5r6g4LPKYhU/Wf6U6fROt+duzHo6SzSS4K2cPn2aJk2aAGlpxNPTRx84cCDHyZF0lWSlhiv340hUqtMe4q8IBOlvZsvV2v+/vow3rpvdfb4qHIwNZBir46lY1oJKJfRo0KBBrraHGKoo4nz//fdSuXr16lJZiAbd4ozxGX62/PmNMSG8Snixvdh20VCCt5IuGgBJNIB27JX58+cXmfaIT1Zx+V48yam68Y5d3FgPEp/xPC6BiIgI7t69m+vHEMKhCJIxeVTG4FkjRowQjZMLdOjQgdu3b+frMT1KeLzVp2GVxap8b4v0kPIC3cfDw0MqlyxZUiqnR+SFtDD9hYnniSquPUgiVa0bosHCWEP8s0ckK9MivCqVyjw5jhAORYSvvvpKKqfniAByJe6FQJv9+/dTrVq1fD3mBeMLb13nstFlUmWp+XpeGzZsEFlmCyHpiQZBOzFdxpTN+/bt0+k6Po1NJfxRMmodEQ2ljNXERD/lVXeHvIguKpwjCzEff/wx//yTlguhd+/emb4hCAoH2YmdoIeemPUgyHUaNnyZ5fXChZcC1sfHh44dOwIwb948pk6dqlP12nTkMsnKF3EvMjx7Na8u4NUHdaZLXy9p3rSW5g3H1D6I5pX/o6Oj8q1t8lw4CE/U/EUul6NQKKRyOj169BB3uDxk9+7d+Pv7s2LFig9y/AbJDbhumHVwsnop9dDXfJjgTLGxsTg6OmqFhxcUblatejk0Vq5cOans7OwsJRSMi4vTmtFRkEhRppKizN2AWRqN5rXUB3lNXlgc8nRWhfBEzR8GDRrEhg0bAAgODn5rJE5B4SPMKAznis5ZDkX8E/kPHRI6iMYSfFAuXLiAnZ2dZK1Iz1a8e/duunTpUmDOc/nW0y8tDrnA4/s3kT25TN0WTjxOMcttdQCJT19bbKqXQqUSeloW59wgz3wchCdq3uLs7CyV0+MtAEI0FFHqpNRh1tNZGGgyNyJ++exLIRoEBYJ00QBIogG0k+PNmTMnd56naIjUj3xrOvi8JvxiKNVNYvDy/IdvvxhGRbNknf4N80Q4CE/UvKFbt25Sed68eVJZOJ99OIYMGUJoaGiBOBeXWBc2RWyiT3wfrOKsMIo0omtCV7weejEpuuAEY9q6datWtkeBANAa5qtcubJU7tmzp1SOiYnJ1r5i9WKZXmY6zas1x76qPfWr1WdQhUGcNc7/obKrJw8yoH195s2bi56eHoaGhkz+fBg2pfNnboJODFU8jU3lblQKapU6e8MHH3ioopSx+jWnElO9FCpb6NOrV68PfjE5OTlJyYquXbuGra2tuMMIBIIiQ1hYGHXq1AHSYkycPn0agKCgIK2XqXSi9aPpW7Ev9wzuZfKmrMeix4twjnN+63Fza6iipLkpqU9vM2PCx5iYmABw4eotDp2/y7U7j1CpcyE0fBZDFRXNZfTp0ydXf5Ncd44Unqg5x97enqNHjwLaYWGFaBAIBEWNdNEASKIBYNOmTZJwmDlzJjNnzgTgh9I/ZCoaANSomVF6Bi2TWmKVapUv5/8sNpHLZy9pZSZ99jyOsFsPdfY3yXVbSZon6otP6suPMjUVZarqjZ9UVWYfNakqNcpUFSqVOu2jfv2jVqfNzFCrX1ontGZZZJitkRfmnYOmB5lVehZyKzlTy0xla/Gt75xgKGO0tk2bNknlqlWrijtHAePcuXMFfkrr/fv3adu2bYFvy4kTJ2r1d4EguyxfvlwqW1tbAxCnF8e2Ytuy3C5WL5adZjtzdOzbV85i8vQc5rGXMY+9jGXyTaqXK5Yr9YqNeoTx0/PSvs1jL1PRvGCFXCrwcRzy1BM1pyJJlsL3Zb5nY/GN0rJggvE198WvuB9LHy+llKrUG7evV68ely5dApCGIwDKly8v7goFmIYNGxb4h12lSpU4dOhQgW/LRYsWiQ4lyDHDhw8H4JLRpWytf9H4Yo6Ol5wYx/+mzaVYsTSx8CDyEb/7H82VupiXKkv0rRus/OPltXHg+HkCD4W91/7ywsehQEeOLOieqH+U/ENLNGQk2DSY6aXT0k6npKRIy2vWrCmVT506JZUtLCzE1S8QCAQ5eeiqzbMnHIIv5upxK5QvR80SOX8+adRqQnZ68bF8cIFu5wIrHAq6J2q0fjTLSy7Pcp2dxXZyxviMVmS169dfBulJd5QR6AZjx45l+3bdSBSl0Wi0RKou0LRpU549eyY6muC9sVXaYqZ5u2W6QeLLGD0ZY0c8fvw428eSyWRaz4lP3AbTsqoRsvd8w1epUgnZ7smKRT/SunXrXLMYFCmLQ0unblyLiCMpKUladun6HQzMy6Gv9+FP+6zxWVS83eP2tPFpwsLCtDqbQDdZunRpgZhpk92b2o0bN3SqfU+dOqWVPEkgeFcMNAZMjJqY5Tr1U+ozt9Fc6f+//vpLKmcMlJSa+uZgaqXLV+H4pTvMXqrg+fNYabnroL60q2X+zuedqkzm5I41rF2xmEaNGr180bz9gJl/buBpTMFKHlZghcOz2ERC3+CJmivTV3LIU72n2VovSj9KXM0CgUCQT7g/d8cl1iXT72yUNix+tBhDjaG0LKNlLiQkJHvCoUJVNh44T5TShPmrNhIV9fI+39+5B90aWGbb8pCSlMDpXWvxXbOC2rVrv3xRvnGPFZuP8SxJxoFzd4qucCgsnqg3btzALsUuW+tmdz1BweThw4c6G42zTZs2PHyoe1O+Tp8+zYABA0TnE7znQ02PuU/msvbhWlxiXWiU3Ihu8d2Y/nQ6W+9vpaYye0N42R1KjtOYstBzOw8yXGs9u3aib8uKyDRZW6UT455zcd86An3XamXUPRN2m3+2hpCizHk22/cZqojSj2KP2R5WWqxkj9me116A83VWhS57ol66dIl69eoB8MUXX7Br9y7sUuy4YPTmdMZlVWWxT7QXV7IOY2VlRXBwsE6eu66ed5MmTQgICBCdT5AjHBMdcUx0zJdjJWhMWOyzly8HtqXaiyn0Hdo5YmZ6gjW7zvLgZhhTvxyLXkISFiVLYlytOjEJptw9sZON670pXbr0S6vH+Rv47jn9QdJ5a9Dga+7L3NJzSZC9HB4x05jx/dPvGRY7DBmyDztUUdA9UTPOepgyZYpU3r17N/ros/Dxwjc64uijz09PfqKEuoS4ggUCgaCQk6QxYpn/Ya5cvSYtOx4cTPiKeUwvY8UnRuWYWLk+nxWvxODbz3B7cINvBgzUEg2HTl9l3e7cFQ3vYnHwNfdlWplpWqIBIEGWwIwyM/Ap4fPCqpPP6JInasZ8ENu2vR5UpHZKbXbe20n7xPZSumIZMholNyIwIpCOCR3F1aSjzJkzBw8PD52uw8CBA7XEry7y22+/sXTpUtEhBTpBssaQldtOcv7CJSZPnMhDjw0sGzyKLi1aU7FcecyMjTHS06eEmRkNTUvS7OQNTiz9B4A9IZfx33c2T2ZBZIco/Sjmlp6b5TrzLOfxRP9J/g5VpHuiHggOZYJ7P0qUSPM+dR3UF9MtOzlwLe6d9peqTObULgVrVyzRciq5fvsBXtsO0ahWtRydb8ZsbW+iSmoVPB56kCJL4bbhbSqlVsJMbSauIB1nxowZOl+H7PTfgs6ECRNEZxQUCKIf3cdEGYV51Uakqt7soK/U6PO/JWupcuQw4/oNxszIGI0yFVJT0/6qVKBMRZOaCkoVVULDOK7YwtbIt1vfr509SpNGDYijeLbO+cGDB5y5foY7d97uXBluF07CJ1nP3kiUJTJ7z+x8Fg4vPFEhzRP1G/feWFpaAmmeqCb/7uXfc0/RZGPKYkpSAmd3e+O7ZqWWU8mlG/fw2B5KijJ/PVGNNEbYpohcEgKBQFDYuHf9AiVS7vPH8j8Z8eUUkpKzfsjf2reL//UcjJmhERqlElJVaF6IBY0yFZlKBUqVtLza0VMkGSp59DTrWXgJjyKYNvpHFvztR7Tq7eLhwYMH7A4KIigo6O2VzGYC3W1Xt2UuHNSo0cvjUYx0T9Svh3WhglVaspGeXTthanKYzcfvoZHpv1n1xD0n7OAGAn3XYmX1MlHJmbDbeO06kaUazC4fylwk+HCoVCrq1KnDtWvXCkV9xo0bR+fOnXM9M96HwtnZmXnz5mFnJ2YqCfKPS6H76dS4Kt99twqAdasWZ7l+TEwMk1qGULVCRUkooEoTCeliQf1imSQm7kXyxy/fYmhbPVvnNPVLVxau8OFRStazEitUqEDXrl2pW7fu2y0OtcPZyta3rte7Vu+XabUT9BJYUnIJB0wPcMPwBtZKa9omtmX8s/EUVxfPdiO/aypSE1mKlicqQEhomifqoW0+dKxTTcsT9coLT9T167xy7omaRSrS8mbqAp/ISCAQCAR5Q/qzzDDuLgtmjEcvm4EHr127xv4xUxnY3P6FMFBJ4kGjTJXEAq+IB4txIyjWNfuzQKJjYvlpzR6SlalZPsvKGCuzNb05Sj+KdlXaveYYqbU/jSkH7h5IMyvcNbhL90rdWWmxkqtGV1HJVFwzusZqi9V0r9SdO4Z5Z/IvDJ6oAoFAICicKItXYeFyRZYBoTJSunRpTIxNUKdkEA2pqWhSlJCaVibDsEW6iHiXqMIJiUms2hqSJhpyCUuVJdOeTsva0hE1lTKqMhioUTOl7JQ35i+PMIhgcpnJrHuwLs+GL9I9UUd0VbJ29SqM9oWybPAoSpUooaXUDM3MaKg0Qv3CE7X52I/ZE3KZrYcviN4teG9WrFjBs2fP+PbbbwtVvebPn0/JkiX5/PPPC1W9nj59Svfu3QkNDRWdV5AvRCSZ8vNyb779whWPbcfeOhwep87cqvBy2CJdPLzwc0hV8dDCgl3+B7Pc762w08yePJqVm49yLzI61+s5NHYoMmT8aPkjCXracRymPp0qReSUbbq/SdOv4ttN8qvDVlMvph5qtRqVSqX1ybjsv+tJpGZo0+x6ogLcCTtJlSP7mPIGT9RXG/9217Z458QTNQvzTjlTFR999JG4YgQCgaAIktmwu7WVBXefxKFMzXo4/rL/SjwbtU5zIkxVSSIi7fml0hq2IDUVQ9vq7O7vzPGLt7J+yU6Mp1Fda8JuRWb7WVbaKIWBAwe+U92j9KM4bXyacMNwaihr0DS5KZYqS+l7g4E/DYRsTJMetWwU/PH29b740RMjk7TpiLrqiZr2O4ihCoFAIBC8JPxhzFvXObnHnxkzv+Ha/lDqPk5IEw0vrAoaZZqIkKWqpGELmaEBJb8ZxbMjIYB+lvs2Ni32umjIAyxVlnRK6EQnOmX6vUFqSvbGSMyMzTArY4a+vj56enro6+trfTIuA932RBUUDZo3b86///4rTQkubHh5eXH9+nVmzZpVaH9Df39/jh8/zoIFC0SHFnxQNBoNJ/5dSfyYUQAAIABJREFUx8IfJuHg4ICqU2du/LKCEuduvBAJL4co1C/+l5mZYDnjK4xq1+Cr2jVY5bWB848Kfl1l/uH+moE13m7G2BixkUbJjbJt3ikqnqgCgUAgKHy8ywxBtVrFqX/XsWzhLBo3biwtv/fwCRc376fR7btowm6gSUxOszIUM8O0fQsiHZpRvVFtjI2NpW0UGzYRekf5rqolV4cq3oZeE5rQLrFdlis5JDrQMLnhO+24qHiiCgQCgaDwWQ9UquyJBlWqktNBCjyWLdQSDTfvRfJn4BF2xMGoO7cpuWY+5dbMx2r9EuIXT2NJ8XL8eegK85b7EhsbK20nH9SP9rWKF+j2MZAh4+cnP+Nm5cYNwxuvrVBDWYP5T+YjQ/bOOy8qnqgC3WHjxo0cPnyYX3/9tdDXde/evfj6+rJy5coi8dt+9dVX9O7dmx49eoiOLtB+uKPigcEDrFRWGGjeHDA5MTGRrVu3olAocBw6SfLXe5WUpESMTExRJidx8T8/1nksp0qVKtL3V25G8M+2EJJfuAKkpqai1pNhUC4tjMDDG3eJep42a+GZyoz5KwP5ZqQzpUqVAqB/nx6Y7d7PrnOP0WhAmZKMobHJe9U9L/z1DACsUq3Ydn8bKyxWcMj0EOFGaZ6UDokOfPHsC0w1pu99gMcpZvy5fl/2PFGfPkVeOek1T1QyeqJmsEYY2lbnv6hErtzO2lkkGQs8th0j/P6TD9rYgg/PRx99VGRmy3Tq1IlOnToVmd922bJlooMLtIjUj2Rm6ZkcMjtEgiwBI40RLZJaMOvpLKyV1i+tAzdv4u3tjb+/P8+fPwegbRbW7Fthp/ioUyvW+21gg2I15cqVk747f+0Oa3aceOvzLiOxGjPmr97KBHl3ypdP21f3Lh0wMQlm9vzFDB/5KadvPSs4Fof0grHGmK+ffc3Xz77O9YMUFU9UgUAgEBQMrhteZ2DFgTzXe/7SUiBL4YjpEXpV6sU/Ef8Qty0OhULB4cOHpXUaN26MXC4n0rB4lj4OroOcGek6EENDQ2nZiUs38Qk6hUr97mkPEjFlkSKIMYM7UKVKZQCc2rbBoXULgk+HFSjhoPehT0Cj0RAa5MP86V/TrVs3HH/8nme2ldPEgvKlxQFlKmqlMm1appkJlrPHpXmijhpKg3LiIhFkTa9evbh8+XKRqvPly5fp1atXkfy969evT2Jiouj4RRQVKiaXnawlGjKSLEtmhHoEX0z6gsOHD2NsbMygQYPYsmULgYGB9O/fP1vHySgajpy5hmLXyfcSDekkYcLSDQe5cSM802O87zM2zywOH4J0T9Q/M3ii6hvoY+Y+mLMZPVFfiAe9DJ6opRu9TKP9idug9/NEFRQZtm/fXuTqXLdu3SJZb4CLFy+KTl+EuWZ0jbPGZ7MWF1VUlBtcjs8qfkb//v0pWbLkex/vfsQD/PeeQpML7+LPE1L4dtoP+Pt6vXzD19MrUO37wYSDKlXJmd0+ePy5iFq1aknLb96LZOWWY8QnwpI7twlYMx/DxGT0DA0Ij4nj791niDp0hZLBp5n0cX/Mzc2BNE9Us607OXA1LsfnFh8fj6Whgbj6BAKBQAc5b3w+W+u5LHRhVMyod95/tdqN2XPsPAb6L4fJbauU4crdqByfuwz4yO0L1u85QWJyKvGJKTx59v7PtbywOOSrjElJSjMdKpOTOL/Xh3Uey7VEw5WbESzfGEx8Ygqg7YmqV8qCh0+iX/NEjY5+OUuif58e9GhYBhka0GhQJie913leuXKFpUuXsmnTJpRKYcXQVY4cOYKbm1uRrX9MTAxNmjQp0n0gJCQEFxcXcTEUMeLvxWdrPQuNxXvt39i0GPvO3OXfk7ekT26IBgAj02IcD4vgyNmbnAq7y5XbkTyNiS9Q7ZuvwuFW2Cnql07l6qE0T9SM01fOX7vDyi3HpOkr2SHdEzUy8mWore5dOtCvZWXO/+dPy9pW72eGMTDg3r17TJw4EUdHR5YsWcKTJ6/PyNCg4YDpAZaUWsIPpX/Az9yPR/qPxFVbQHBwcMDLy6vI1t/CwoLTp08X6T7QqlUr1q1bJy6GIkBqaio7duxg2LBhzO49O1vbZCeoYU55fPM8JqpnWsMN6uQ4DJMeo58PQxB5McyR7/Z4XfBEtbOzw0w1gPPnz3P16lWWLFnCn3/+Se/evRk5ciR2dnY80n/EpLKTOGx6WGvbEuoSzHkyhz7xfcSVLBAIBHnMw4cP8fX1Zd26dTx+/BgAMzMzqgRV4Uq3K2/crktCFxonN87z8ytfoz6jBnbB1PRlWIN2Dq15pjJlb+jVPDuusZ4KS+NU2jm2022LQzoF3RNVT0+PFi1asHPnTry9venSpQupqals3LgRZ2dnBg4ZiKuh62uiAeC53nPGlxvPSZOT4or+QIwcOZIDBw6IhnghghMSEkRDkJZmfMWKFaIhCgEajYbg4GBGjx5N27Zt+f3333n8+DE2NjbMmjWLY8eOEVg7kC4JXTLdvnlSc+Y+mftegQ3fFTV6bDv5EG//rdK5++89laeiwVSWQqXiarp06kj58uV13+KQkYLuiSqTybC3t8fe3p47d+7g5eXF+vXrOVX3FFTIolOjYUbpGey4v0Nc4R8ADw8P0QgvuHDhgmiEF3z77beiEXSc58+fExgYiEKhIDw87UVRX1+fnj17IpfLadWq1cs0BBr4K/IvdhXbxX7T/Vw3uk41ZTXsk+wZEDsA/bfE/8lVoQMcv51EvO8OipcsS8hb0mfnBHP9JCpZmtKubVvMzMzy5Bj5Khx02RO1atWqTJs2jQkTJjA8ZTinOJXl9mFGYcToxWChthBXu0AgEOSAS5cuoVAo2Lx5sxSfo3z58gwdOpShQ4e+8a1ahowe8T3oEV8wwpBfvB8P9/PK0VFDSf1EqlewxMHBIcfxHwqMcEj3RM0L0j1R8xozMzNMrbMXgjvCIAKLFCEc8oNr164xZswYgoKCRGNkoFu3bvzxxx/Y2tqKxhDtolOkpKSwc+dOvLy8OHXq5Yuavb09bm5udO7cGQODvHuEVSlbgoSk5Ewd43Ojbrdv38bIyIhq1arlyouzuWECNtUq0bJlyzyP+1BggxVk5YmqNiufI5+I7JBVw9dOqc0R0yNZ7yAVDvx9gEr9K1GiRAlxF8hjbG1thWjIBNEmol10jfv37+Pt7c369euJikqzRhcvXpwBAwbg6uqKjY1NvpxH79Y1iYmJISgo94f77j64y+aVy6hcuTLNxozJua1Bo6FevXo0aNAgX9pGFh4enqvRId4lh3mWD27U9GpWkc5ObbWWbzl4NvecSjLJYW6sp6KMcTLtHB3eaP4KMQnBpcJb5oZvBZzTLBT9+/dnxIgR1KxZU9wVBAKB4BXUajWHDh1CoVCwb98+aai4Tp06uLm50bdv3zwbr/8QHD9+nKFDh9K8eXPWr1+vc+evV2A7UgH2RG2V1ArX565v/L6EugQLYhfQpk0bEhISUCgUdOnSBXd3d/777z/UeWwtKUpMmTIFf39/0RBvQMwwyZqIiAgcHR1FQ3wgoqOjWblyJR07dmTkyJHs3bsXAwMD+vbti7+/P9u3b8fFxaVQiQaA5OTktBdVY2OdPP8Ca3HISP1KxfLGEzWDxeFdPVFVqFhtsZpfS/1KiixFS1TMfzyfqqlVAbh69Sqenp5s3LhR6iw1atRgxIgRDBgwgGLFiom7h0AgKFKcO3cOhULB1q1bpftixYoVcXV1ZfDgwZQuXbpQ13/Pnj189tlndOzYkVWrVgnhkBfCIc/QaCDxSY48UZNkSYQZhRGlH0W95HqUV5XPdG5wdHQ0fn5+eHl58eDBAyBt3G7w4MEMHz6cqlWriruJQCAotCQlJbFt2za8vLw4f/5lLon27dsjl8txcnJCX1+/SLTFjh07GDNmDD169GDZsmVCOGw7diPPPFEBbt26hVKppHr16jmebiIDzFWP880TFUClUvHvv//i4eHBiRMn0s5DJpNMdfb29i/nIQsyJSYmBicnpyIfTjk7TJs2DTs7O5GvIRt4e3sTFhbGnDlzRGPkIrdv38bb25sNGzYQExMDpIVDHzRoEK6urrkyq0DX2LhxI9988w39+vVj0aJFQjik39jzymv5559/5tmzZ3z77beUKlUqhwaH/PVEfZULFy6wZs0atmzZIiXTsrW1xd3dnX79+mmFKBUIBAJdQaVSsX//fhQKBQcPHpSWN2jQADc3N3r37o2JiUmRbR9fX1+mTp3KkCFD+Omnn4RwyGvs7e2JjIwkODgYKyurQtGJnjx5wrp161AoFFKsdQsLC4YOHYqbmxsVK1YUdyKBQFDgefr0KevXr8fb25uIiLS4OsbGxvTp0we5XE7Dhg1FIwFr1qxh1qxZuLm5MWvWLJ07fwNdO+HU1LTsmXkZ+CO/KVOmDGPHjuWLL75g586deHh4cPbsWVasWMHKlSvp2rUrI0eOpHnz5kV6GOOXX37BzMyML7/8Utx5ssmyZctISkrim2++EY3xDnz66acMHTqUTp06icZ4CxqNhlOnTuHl5cWOHTuke3TVqlWRy+UMGDAgx9bhwoaYVZHPNG3alGfPnnHy5MlC3RnPnDmDh4cHO3bsQKVKczatX78+I0aMoE+fPjrb4QQCQeEgISGBzZs3o1AouHz5ctoD5YW/llwup23btvniN6aLLF26lN9++42vvvpKJ0W9sDgUUBo3bsySJUv4/vvv8fHxwdvbm4sXLzJlyhR+/vlnhg0bhqura55kPhMIBII3cf36dby9vQkICCAuLi0fkKWlJUOGDMHFxYXKlSuLRirkFgedk4PpwqGoTNuxsrJi4sSJBAcHs2DBAurVq0dUVBR//PEHjo6OjBs3jjNnzhTqNqhTpw4pKSnibvMepHtvC94fGxubIh+0LTU1lV27duHq6krXrl1Zs2YNcXFxNG3alN9++43g4GAmT54sREMREQ46N1RRq1YtUlNTCQsLw8jIqMh1OI1GQ2hoKJ6envz777/SDa1x48a4u7vTo0ePPM2KJhAIig6RkZH4+vri6+tLZGQkAKampvTt2xe5XE69evVEI70jtwxvMWP7DI6EH8GtgRvftv0WM7VuRcbUOeFQs2ZNNBoN169fL/LjZ/fv30ehUODr6yvNjy5Xrhyurq4MGzas0EdfEwgEefNyEhISgkKhICgoSPKxsra2Ri6X079/f5G47z1IlCWywHIBa0qs0VpulWrF/CfzaZvYVgiHvECtVmNjY4NMJuPGjRuiJ74gISGBTZs2sWbNGq5duwaAkZERzs7OjBgxgvr16+tcnby8vLh+/bpOTlUqSISEhLB48WLWrVsnGiOHHDx4kNWrV+Pp6Vko6xcXF0dgYCAKhYLr168DaUPCXbp0wc3NjdatW4vgdDlgfNnxbCm+JdPv9NAjICKARsmNhHDIbZRKJbVr18bAwICrV6+KnpjJm0JwcDCenp5aGeZatGjByJEj6dKlS5HxDREIBNkjLCwMb29vNm7cSEJCAgBly5bFxcWFoUOHFpp4OR+SQ6aHGGE1Ist1aqfUZuf9nTpRH52amlBUZlS8twqUyXBwcMDBwYHbt2+zdu1a1q9fT2hoKKGhoVSsWBE3NzeGDBlCyZIlRYMJBEUUpVLJrl278PLykkLfA7Ru3Rq5XE7Xrl3FfTYXOWJ65K3rXDG6wlP9p5RWFfwhZp2yOMTGxtKoUSOKFSumlSRF8Gbi4+Px9/dnzZo13Lp1CwATExM++ugj3N3dsbW1LVDn265dO3x8fIR3di5x9+5d5HK5SK2dy8yePZuqVavi7u6uU+cdERGBj48Pfn5+PH2alhm4WLFi9O/fH7lcXuDuB4WFz8t/zm6z3W9db8ODDTRLaiaEQ64pZJmSIylHGLVsFKZKUzZN24Rtiujk2UWtVnPw4EE8PDw4dOiQtLxNmzaMHDmySGWmEwiK2rV/5MgRFAoFe/fulWZi1apVCzc3N/r160exYsVEQ+UhCywX8JfFX29d7+Sdk5RSFfzAhjohHC4YXWBy2clcMbqitbxPfB9mPp2pEw1dkLh+/Tpr1qwhMDCQxMREIC087PDhwxk0aBDm5uaikQQCHScmJoaAgAAUCoVkbTQwMKBHjx7I5fIiH8I+PzlqchTXCq5ZrmOXbMeWiC06UZ8CLxzuG9yne6XuxOvFZ/p9s6Rm+D7wRR/xtvw+N5YNGzawdu1a7t27B4CZmRkDBw5kxIgR1KhRI1/OIygoiE2bNrF8+XLxo+QyKpWKOnXqSLNtBLlPhw4d8PT0LDDpoS9cuICXlxdbt24lKSkJSAsk5+rqyuDBgylbtqz40T4AU8pMwd/cP9Pv9DX6bIrYRP0U3ZgBV+CFQ3bGhn568hNDYoeInpmDh8vevXvx9PTk2LFj0nInJyfc3d1xdHQUMecFggJMcnIy27dvx8vLi7Nnz0rLHR0dkcvldOrUSQxFfujfSJbM4lKLWWmxEjUvI5FWSa3CgscLaJXUSmfqUqCFgwoVjao3IkGWkOV6veJ7sfTRUtEzc4HLly+zZs0aNm/eLIVFrVmzJiNGjKB///6YmZmJRhIICgh37tzBx8eHDRs2EB0dDUCJEiUYOHAgrq6u+WY1FGSfCIMIes/uzTPTZyz7bBkdinfARGOiU3Uo0MLhocFD2lRp89b16qXUY9v9baJH5iLR0dH4+vri5eXFw4cPATA3N2fw4MEMHz6cKlWq5PgYAwcOZOrUqTRt2lQ0eB5ib2/Ppk2bREK0PObWrVuMGjWKffv25e0LlUrFwYMH8fLy4sCBA1K8lvr16+Pm5kafPn0wNTUVP0gBplmzZkRHR3PixAksLS117vwLvsWhWiMS9LK2OPSO783vj34XvTEPSE9u4+npyalTp9I6jUxG586dcXd3F9HkBIJ8IioqivXr1+Pj4yP5JBkZGdG7d2/kcjmNGjUS16KOYGdnR0JCAufOnaN48eJCOOQ2o8uPJsgsKMt15j+Zz6DYQaI35jHnz5/H09OTrVu3SsG4ateujbu7O3379sXExEQ0kkCQi2g0Gs6cOYNCoWDbtm0olUoAqlSpgqurK4MGDaJUKTGrTNewtbVFpVJx5coVnUxKWOCFwwODB3Sr1I04vbhMv2+Z1BKfBz7oIZz38ovHjx/j4+ODt7c3T548AaBUqVIMHToUNze3LEPUnjp1innz5uHv7y8aMp8YMGAA06dPp0mTJqIx8onVq1cTERHB9OnT32v7hIQEtm7dikKh4OLFi2k3a5kMJycn3NzcaNu2rXB21FFUKhW2trbIZDKuX7+uk1YinYjjcNnoMt+U/YYwozCt5c5xzsx8OpOSahE++UOQkpLC9u3b8fDw4MKFC0BaUpzu3bvj7u5O06ZNhen0A6JGzRWjK1wwvoCBxoAGyQ2oqayJDPGbFFTCw8Px9vbG39+f2NhYSZQPHjyYYcOG5YpvkeDDkpCQgJ2dHSYmJly6dEkn66BTkSPXh69nxqYZVLeszopPVmCrFJEjCwIajYbTp0/j4eHBrl27pDS8dnZ2jBw5kl69emFkZCQaKh+5Z3CPKWWncMzkmNbybvHdmPt0LpYqS9FIBegNdM+ePSgUCo4ceZnToEmTJsjlcnr27ImxsbFoqEJCdHQ0zZo1w8LCgtOnTwvhkNccPXoUV1dXWrVqJdIEF1AePnyIl5cXvr6+0vSwMmXKULJkST755BMGDx4sGimPidWLpXul7jwweJDp9/VT6hMYEYihxlA0Vj4wfPhwPvvsMxwdHbWWP378GF9fX9atWyfNXDIxMcHZ2Rm5XI6dnZ1ovEJIZGQk9vb2lCtXTituji6hU+nP0t9kRda2gouVlRWTJ09m7NixbNmyBQ8PD65cucKTJ0+YPn06x44dY+TIkTRo0EA0Vh7xS6lf3igaAC4aXeSfEv/wRcwXorHygbVr10pljUZDaGgoCoWCnTt3Sve06tWrI5fLGTBgABYWFqLRCjHp8XF02YqkUx6FIq227mBiYsLgwYPZsWMHPj4+dO3aFZVKxaZNm+jbty8DBw5k27Zt0m8qyBkTJkzA2tqayZMnc8D07ZkwD5odzHS5n58f1tbWtG3bVjRqLhIfH49CoaB79+4MHTqUbdu2odFo6Nq1K15eXuzZs4dRo0YJ0SCEg7A45JXFQXgT6wb37t1j2LBhHDx4kNatW3P37l28vLzw8/Pj1KlTnDp1CisrK+RyOS4uLkVmWllUVBSLFi1i//79PHnyhOLFi1O5cmU6duzIuHHj3muf1atXp3HjxlSuVpkAw4C0hSWBGGAdMFR7/RuGN/Ksfmq1Gnd3dw4fPgzAokWL6NevX5G8Bq5evYpCoSAwMJCEhLR4NGXKlGHo0KG4uLhQoUIFcaMoosJBl/2+dEo4CIuDblG5cmUOHnz5ZlulShWmTp3K+PHj2bhxI56enty4cYNffvmF33//nb59+zJy5Ejq1KlTqNtl/PjxHD58mBIlStCyZUsSExO5efMme/fufW/hMG7cOGnbgNQA7hncy1poKKvnWf2WLl1KcHAwenp6UgrnooRSqeTff//Fy8uL48ePS8tbtGiBXC6ne/fuOjl3X5A7pKSk6LzFQSeHKoTFQbcxMzPD1dWVoKAgPD09cXJyIiUlhQ0bNtCzZ09cXFwICgqSLEyFCbVazdGjRwFYvnw5Xl5e+Pv7ExoayqJFiwC4efMm1tbW2NjYEBMTA4CzszPW1tZs25YWWv3XX3/F2tqazz77DNAeqmj5sCXIXlgbAFxI+z/9pT8GmApdunShXr16NGvWjEmTJr12rn5+fjg6OtKgQQPGjBlDfHz8W+sXHBzM0qVLGTt2bJELCPbw4UN+++03HB0dGTt2LMePH5f6+s6dO/Hz86NPnz5CNAiLgxAO+YlwjtQNZs6cqeUQ9sbOp6dHu3btWL16NXv37mXEiBGYmZkREhLC6NGjcXJyYuXKldLDszCgp6cnzcX/3//+x4IFC9ixYwcxMTHY2NgAUKNGDSpWrIharebEiRPExcVx+fJlAMkLO/3vq576AJMSJmH6tSmkW0J7AOOAPkAqGDsZE/pbKA8ePKBHjx44Ojq+lnb74cOH/Prrr9SpU4ekpCR27NjBP//8k2XdHj16xLhx47C3t2fs2LFFoq9rNBqCg4MZPXo0bdu2ZenSpTx+/BhbW1tmz57NsWPHmDNnDrVr19babs+ePZLoEwjhoGuIoQpBngiHd6VGjRr88MMPTJw4EX9/f9asWcOdO3f46aefWLx4Mf3792fEiBHSw1WXWbp0KVOnTuX8+fPcuHFDEhTDhg1j1qxZyGQyHBwc2LBhAyEhIchkMlQqFTY2Nhw7doykpCTOnTsHgIODw2v7tzK0YvPkzfRY0wNVigqGI/k41NtSj0tn0oLOKBQKGjdurHVtZbSM+Pn5UaNGDSZPnkxAQIB0zPQx+3Tc3d3p1asX48aNw8DAgCVLlhT6NOzPnz8nICAAb29vwsPDgTRLaK9evZDL5bRs2TLL4GedO3emc+fO4mYhhIMQDvllcRBDFYUXc3NzRo4cyfDhw/nvv//w9PTkyJEjeHt74+3tTdu2bXF3d6d9+/Y6+3CqX78+mzdvJjIykhMnTrB79262bNmCQqGgU6dOtG/fHkdHR0k4AFhYWODm5sYPP/zArl27UCqVWFlZUbNmzUyPYaO0wUxtRiyxfBT3EY2eNsIu2Y7L5y8zgxkYGhpKoiEzMV62bFkpJXOZMmUApKGKiIgIzpw5I60bGRnJ7du3CQkJkYZLMt4gV61axa1btxg/frzO98+LFy+iUCjYvHkzSUlJaULNygoXFxeGDBlCuXLlxEUsyJLC4OMgLA6CXEGpVGJnZ8eVK1dyZX/6+vp06tSJTp06ce3aNTw9Pdm4cSOHDh3i0KFDVKtWjREjRjBw4ECdyy4XEBBA165dKV++PL169aJTp07s3LkTpVLJs2fPJEuCTCbj0qVLxMfH06JFC+zt7QH4448/gMyHKbQu7hfXieUxS46sP8LwFcOJrRQr/V5nz56lUaNG0rWV8brKOA7/6pvzlClTmDJlitaydMtJeHi49AaezqVLlyTxoatviDt37sTLy0sr0l+bNm1wc3Ojc+fOOXqZmTZtGnZ2dri4uIgbibA4COEgLA5FB0NDw1wTDa9ia2vL3LlzmTx5Mn5+fnh5eXH79m1mz57Nr7/+yuDBgxk+fDjVqlXTibaaNm0a06ZNo3r16pQrV47r16+jVCoxMzOjefPmaQ97S0vq1q3LpUuXCA8Px8XFBRsbG8qUKSM9mN8mHCpVqkR0dDTBwcG0atWKw4cP4+joSP369bl48SJyuZxu3bqhVqu5ffs2AQEB712nmjVrviYY0lMH6+p0zLt377Ju3Tr8/PykKKjm5uYMHDiQYcOGvdHa867MnTtX3ECEcNApdMrWm55SVlgciiYlS5bk888/58CBA/z555+0aNGC+Ph4PDw86NixI5988gmHDx9GoynYUdQnTpxI8+bNef78OSEhIaSkpODg4ICHhweVKlWS1ssoDFq1agVA69atJStAmzZtsjzOd999h7W1NVevXsXT05MzZ86gr6+Pj48Po0ePpnz58mzfvp0DBw5IwxJFHbVazX///ccnn3yCk5MTf/31F9HR0dStW5d58+Zx9OhRZsyYkWuiQVB0hYMux3HQqVwVq1atYt68eYwaNeq909UKcpc///yThISETKfz5QcXL15kzZo1bN68WRKWtra2jBgxgn79+mFmZlbkf6OLFy/y3XffsXXrVtFh30B0dDQbNmzAx8eHO3fuAGlWtHRnxyZNmuRLptc2bdoQGBiYZWp6gW6zfPlyFi5cyBdffPHakJ+uoJM+DmIedMHhyy+//KDHr1+/PgsWLODbb79l3bp1KBQKrl27xvTp01m4cCFDhgzBzc1N602+qFG/fn0hGjJBo9Fw7tw5FAoFW7dulZzWKlX0D0c+AAAgAElEQVSqhKurK4MGDaJ06dL5ek7BwcHihykiFgfh45BPCB8HwZsoXbo0Y8aM4fPPP2fXrl14eHhw5swZ/v77b1atWkWXLl0YOXIkLVq0yJc3R0HBJTExkW3btuHl5cWFCxek5e3bt8fNzY327duLe4xACIcsEEmuBO9F06ZNpRkABQlDQ0P69OlDYGAggYGBODs7I5PJCAoKYujQofTp0wd/f3/p4i0KREdH06xZsyLfZ2/dusXcuXNp06YN3377LRcuXKBkyZJ8+umn/Pfff5KvTEEQDVeuXKFHjx7iRlOIhYPIVSEsDkWOU6dOFfhzbNy4MYsXL+b777/Hx8cHb29vLl26xJQpU/jpp58YNmwYcrmc8uXLF+rfqlSpUpw8ebJI9lOVSsW+fftQKBQcOnRIWt6oUSPkcjm9evUqkKGxa9euzc6dO8WNphAi4jgIi4NAByhfvjwTJkzgyy+/ZNu2bXh6enLx4kWWLVvGX3/9Rc+ePXF3d6dJkyaisQoJT548Yf369fj4+BARESHdqPv06YObmxsNGjQQjST4oBYHIRzyWTgIi8OHwd/fn+PHj7NgwQKdPH9jY2MGDBhA//79OXnyJB4eHgQFBbF161a2bt1Ko0aNcHd3p2fPnoXOAbd+/fqcOHECU1PTQts/NRoNJ0+exMvLi507d0r3i2rVqiGXyxkwYAAlS5bUuXr99ddfPH/+XGc98AVCOHxQRJKrD8vAgQMZOHCgztdDJpPRvHlzmjdvTkREBAqFgnXr1nH27FkmTJjAvHnzcHV1ZdiwYTod8TAjFy9eLLT9MiEhgY0bN6JQKKQgZHp6enTu3Bm5XI6jo6NO58744osvxM2nEAoH4eOQzxYHIRwEuUXFihWZMmUKY8eOZfPmzXh4eHDt2jUWL17MsmXLcHZ2ZsSIEdjZ2eVvX1dpuPYggUSlCo1ag0ajQa3hxV8NGo0atbQ87a8G0KjT/ufF8rQy0jrp+8i4rkbaXoNGneEYvNhe/WI7Xq772o1ET4aNVTHsG+RfIKlr167h7e1NQECAlEfD0tKSoUOH4uLiUqSn4AqExUEIh1csDmKoIn/p1q0bf/zxB7a2toW2jqampgwdOpQhQ4Zw9OhRPD092bt3LwEBAQQEBNC8eXPc3d3p1q1bnve/ZKWGK/fjSFSq0x7irwgE6W9my9Xa/7++jDeum919viocjA1kGKvjiXmu4vz583nqP5Camsru3bvx8vKSUosDNGvWDDc3N7p3767Tb3JvY+jQoUycOJGWLVuKG5MQDkI4CItDwSUoKKjI1DU9lHObNm24c+cOa9euZf369Zw4cYITJ05QoUIF3NzcGDJkCKVKlXptew0aIvUjuWR8iZKqktRNqYupJvt+BfHJKq5FJKJU6UZA1+LGeijjonmuVIIyHnWMJk+Ew8OHD/Hz82PdunU8evQIADMzM/r164erqyt169YtEv3T19dX3JCEcBDC4X2Eg7A4CPKDqlWrMn36dCZMmEBAQABr1qzh5s2bLFiwgN9//51+/frh7u5OrVq1ALhrcJfvyn7HUZOj0j6MNEaMjx7Pp88/RV+Tdb99nqgiPDKJVLVuiAYLYw3Pnz0i3QCRFvL77bcUNWoCzQM5YnKE24a3sVHa0D6hPT3jeyLjZXAujUbDsWPH8PLyYvfu3ZLFsWbNmsjlcvr374+5ubnoqAIhHIRweLtwECGn856DBw+yevVqPD09i3xbFCtWjOHDhyOXyzl48CCenp4cPHgQX19ffH19sbe356OvPmLu0LnE6MdobZsiS2GB5QLuGt5l7pM3Z0F8GpvK3agU1DoiGkoZq4mOjnrd4vKWBGNR+lGMLjeaUJNQadkZ4zP4F/dnY8JGfn/0O6rnKgIDA1EoFFK6bn19fXr06IFcLqd169ZFPvpnQkICLVu21Ip8KdANRByHfEb4OOQf7dq1o127dqIhMqCnp4eTkxNOTk7cuHGDNWvWEBgYyNGjRzk6+Shk0S3Xma+jV3wv2iRmntFy05HLJCtVL56+GR7Ery547UGd6dLXS5o3raV5wzG1D6J55f/MRMPb0KBhWulpWqIhI/vM9tH/Wn/u9btHQkICAOXKlcPFxYUhQ4aIxE8ZMDMzE6JBWByEcHgXi4PwcRB8aGrWrMns2bOZNGkSvoG+zO89Hw1Zv23vNtv9RuGQokwlJV045BIajSbf38yzsjhcML5AULGs/WWudrkKZcC+kj1yuZwuXbqI610ghENBe4kSFgdBRtzc3Dhy5IhoiGxSokQJOnzWAY3h24cYrhhdybfzevz/9s48Lqqy/f/vGZhhUQR33Pcl1zI1DJdIzcclM7enMq3UfmplPmbaomlPmT0u9XWp1NTc0DS3XJPUNLfcyAUVFQXEDdwABWaf8/sDGCDZmUEGrvfrxQs4c9Zrzn3O51z3577OjQjunfmNitqkIhOr026nczXfpC2TWLVqFd27dxfRkAu2b9/O6NGjJRBOJhykjoNkHIoNK1eulCDkkSrmKrm7YFw0kOSahKenp0P3J/zccZr7api6bAkWi4VvF6/lZtLjf7qJV8Xnaj7Pap7wUM6r3NKzZ0969uwpgZCMg2QcshMOknEQihKlraVpamya43wn55zEz8+PqVOnEhUV5ZB9uRS8n36dmjJt2leo1Wo0Gg3jR7xG/fKF09Qz66qIi4tj8eLFrBi7IlfraG6Q90gIxRNFUYpFxsEpuypkVIV9uXDhAj169JBAFIAv7n6BOpvmVDe6Lq3OtiIhIYGffvqJgIAARowYwV9//ZXjSIS80Pa5boTdTECv19umnb8chatXJVwKuexySEgIEyZMoF27dkybNo07G+7gcjV70d/M0IzGpsZyQuWT8ePHs2HDBglEESV5yHJy1tyZH4CljoNA48aN2bFjhwSiADxleIq5t+cyscJE4tUZU/LP6p5llnEWvmt9OXv2LMuWLWPr1q3s2rWLXbt20bBhQ3r8vy/souPjHuoIPX3eJrIB4h4kcCEyulDiYDQaWb9+PYGBgZw5c8Y2vUOHDgwePBgvVy/eUt5Cr9I/sqyX1Ytv7n6TY70LIWtmzpwpQSjCFIduCqcTDvKSK6Eo0yOxB230bdjnuY+z2rOUs5ajpb4lHXUdbdmIZs2aMWvWLD7++GNWr17NqlWruHTpEs/r9WjdM/c+XL14mkYVVGi0yZk2jdadMjWaEXk7scD7/PD+bSooMWi1aW3Kq2pTbj605nldN27cYN7y721DKcuUKcOAAQMYNGgQtWvXTlEWsP3Gdj4v/znH3I9hUBnwVDzpoOvAlLtT8LXIkEuh+FIcajhIxqGE8+GHH/Lss8/St29fCYadqGipyICHAxjAgGznq1ChAu+//z6jRo1i+/btXDFkfU4bdAlMnvgVpUqVAuBWzG3mrv/LLvvrVbYisZFXWPTdt7Zpfx4LYeOBC3leV0xMDElJSTRr1ozBgwfTq1evTF/jXcdUh+XRyzGrzES7RFPFXAUXpE3bm9atW/P7779Trlw5CYZkHEQ4iHCwD7NmzZIgPGY0Gg19+vRh/taTaQWgcqBK5UrUK2MgRF+wGg2K1cqxnYHM/mqiXY6lfPnyjB07lvfeey9X9SNcFVeqm6vLSeAgTpw4IUEQ4eAQnHJUhXRVCCUNlUqVwUQ5fPBA2tbUosqnsdJiMXN0+zIWfjsVPz+/NDFRAKNmrVq1qFmzZokvBy0IOQkHZ3+Dq1OOqhDhkH/u379P69atJRBORPnKNTh2Poov5gXy4EFagYNBA16iY8O8v+TJbDIQvGM5KxbOpmXLlrbpl6/e4vMf1nEvPkmCXow4c+YMffr0kUBIxkEyDkL+KFeunKQwnU04VKnJpj9DuG9yZ/riTdy/n/aeiL69u9OteblcZx6M+iRO7lzBmuULadSokW36+SvXWbj5CHF6FX+eiZKgFyNatGjBr7/+KoEQ4VCyMw7icRBKKgmKBzOXbedWdNrwyh4vdOaltlVRKdl7JHQJDzj3x89sXLOCWrVq2aafunCVJVuPYjSZC7x/9qxJIQgiHIomUnK6hDBjxgzKlCnDyJEjJRhOTpLizuzVe3infwdq1awJQEDH9nh6nGD5ztPcirjAp++MRp2kx9vHB7datYlP8uDaid/Y9Msqypcvb1vX0ZArrNl90mle5y0UjDlz5gAwZswYCYYIh5IlHCTjkHcmTJggQShG6BUt368/yLBebWjUsAEAxw4fJnzhHCa19KOJthI+5bxwAXRX44g038TQr38G0XDg5CU27D1j1yyBZByKNiIYHi9Sx+ExIOZIQUj39KJoWLQtmDdeMLHip8Vo/zjO9wOHUrZMGRSTGSwWFJMZjacnLUxarMFXODFvCa1HD2P30VC2HjwrQRQEyTjkGTFHFnMaNGiQofyw4BzE3r6B7kYIri7ZN1GT4sLkOSsw7DzIqB4vpYkGsxnFaAKzGUxmFLMZTBZqHL/AscAtuRINYaf/ojQJ8mUUU15++WVOnz4tgRDhIBkH4R8X/7AwCYKTcf3yWcoYb/Dd/B94450J6FMuNlkR+cdOJvcYiKdGi2IygTk506CYzSgmMyqLBUwW2/Raf/2NXmPi9r372a436fZNJo6ayowf1xJrKZ2rfZeuCudh06ZNEoTHJBycvY6DeBwEoQhx/vheOj9Zk48/XgzAz4tnZzt/fHw8H7Y9Ss0qVW1CAUuySEgVC9Z03RaK2YxyPYbvZn2EpkHtXO3Tp+8MYubC1dw2lpIvSBAk4yAFoIojS5cu5csvv5RAOCEtn6ifJyPr7du3aVO7XkpWwZycVTCmCIQUIaFk0m1hjLie621otVreGdIPN03O7U4yDs5HbGwsTz/9tARChEPxyzgoimITDmq1Ws7AbHjrrbckCE6KqXQNZs4PZNyI13IlkMuXL4+7mztWY1pWgQyZh3QeB7MlxetgzlNZ6CSdnsVbj2KwQ50HoehRtmxZgoODJRAiHIqfcEhf/Elq4QvFmZt6D/43fxUfjRzE0m1HMFuyf8V1gtVsEwQZuiQeEQ8pPgezhWhvb3au35/teiMvnOSL8aNYtPkvrsfEyhcjCCIcnEs4yIiKnPH392f9+vVUqVJFguHk3DF68sMvf3DtbgImc/ajYkLv3eP16vrkxpwuq5CcebAkiwlzWjZC06A2++7ruHg1JvuLHN4s3XaE8Bt3c73f0lXh3GzcuJHDhw/Lm3MdRHGp4+A0OX8pN50zhw4dEtFQjAiPjs9RNATvXs+4z8cR5qNNziqYTLbsgmLKKCIwm1FpXPEZN5S4m1dy3L6bRykuRMbIF1GC6Nu3r4gGyTgUH+EgGQdByPhkfzxoNdMnvU+3bt1oP/UT4hpUTxYLpnRiwWTGajIlD8v0dKfcF2PQNqrDu0NfoXkliaMgiHAoAcJBMg4Z2b59O6NHj5ZAlCCsVgvBQav4YcYU/P39k9uFqwuebw7kdCc/qF8LBcXWNaEu5Ump3s/zcMpoVE89YVvP8MEDaFNTIwEVMuX9999n27ZtEggRDo8gHgcnp2fPnvTs2VMCUUKwmE2c2rWapT98S8OGDW3TI67HsGjLERJ1MCfqKhuWT0ejM6DWuBIen8CPu05x/8BFfA6f5MNhffHy8gLg9QF98Nz6G39ekgqRQkbmzp0rQXCQcHD2AlBO53EQ4SAUS0GQTVlwo14HgMmgJ2TPan5eOj+DaLgYcZP5mw6TqDPaRLZVrcK1UnnUZb2JvhvL/QdJAMRZPJm+aCOxsWmjJPq+2J3uLSqgQgFFwWTQ5/s4xBwpCMU/4yAeBydF6swXD7EQFBRE//79SUpKynK+yAt/07S8mUsH1rEu8Cdq1Khh+ywkLIpFW45gMOa+xsJDxZPpP20lJua2bdq/ugbQp211Qvatp20jX/lyhAw0b96cxMRECYQIh+T7sLM9kYnHIRmpM180CdOEscBnAWfczmBQGWhqaMrgh4N5VvesbR6dTseGDRtYvHgxUVFRADzTL/vaJIMG9OatQf3RaNI8CSfOR7A66G8sVmue91OHB98GBvHewABq1KgOwHMdnsXfrw2HT17gZGScfJlCmkANCZEgiHBwPuEgGQehqLOh9AYmVpiIUWW0Tbvuep2gUkGMjBvJsMvDWLlyJStXrrR1FdSqVYvhw4fzoHRpDKbsh16mFw2HToWx7o/TBeoa0OPOvHX7GfGSH/Xq1X1kG/lBuioEofgLBxlV4UScOHGCgQMHSusrgoRrwplUYVIG0ZCeBT4LePbrZ5k7dy6xsbG0atWK+fPns3v3bgYNGpSnbd24eYv1e/62y036QZKRjyZOyXhRkJLuglyDHEJxKQDldF0VJTnj0Lp1a3755RdpfUWQJd5LMKiyf/21abyJbondePvtt2nVqlWu112r0ZPsPhKCazrR3KBGBS5eu1/g/VYBLw8eyS+7T6AzmEnUGbkbl/8RFpJxkGuQUPwzDtJVIQh24LRbzkZVbVst8xbMw1XJ2zns5lGKP05dc8h+az1KcezCTfkCBUGEQ66RktNOwIgRI9i1a5e0uqJ8QVAMOc5jVVmxYnXoftyJCMHdEpehu8FqSECjv4NLIXRBSDdHyWHmzJnMnz9fApEP4eDsdRwk4+AELFy4UFpcEeXevXusXLmSa89cg9eyn7eRqRFaxbEXjMp1mjK0f1c8PDxs0zr6+xFn8WDP8UsO266b2kI5NzMd23eUk6KEMH78eAlCCc04yHBMQcgHERERLFmyhA0bNiRfDFqD6hUVijrrPv434990+H5ZUbMtOJqYu1sZ1P9FFEVhwx8nOXDqisO26aEyUqW0io4dn8fHx0dODkHI4h5msVhQqVRO/wDsNHlFk8lUojIOUVFRPPfcc9LaihjBwcGMHDmSLl26sHr1aoxGI926dWP9x+v5KO4jVGRej+HlhJfpm9C3UPZRAY5d1fPjmh38HHTCoaLBy0VPrQpudOnSWURDCaZHjx5cuHBBApHLbINKpZKMg2Qc7E/NmjXZt2+ftLYicu7t3r2bRYsW8ffff9saf//+/Rk2bBi1a9cGoFV8K54yPMU8n3mEuIVgVBlpYmjC6w9fp3dC7yxFhaM4dyMRbjiq2p+Cj4uO2lXK4e/vX+D6D4Jzs2PHDglCHoSDs+N0Hge5QAmFRWYVHsuWLcuQIUMYPHgw5cqVe2SZNvo2rIhegYKCFSsu5E7o1qhYhiS9gbt37xb5uKgAL00S9WtVo23btmKIFIRcUFxqOEjGoQjy2Wef0bhx4zwXBRLsR6rhMbMKj3379s1gPMz65qrKtWgA6OVXj/j4eIKCzhb5+CiKQpMmTWjevLmcLEIGoqOj6du3L4cPH5ZgSMah6GQcirvH4csvv5QW9ph4xPAItGrVirfffpsuXbo4XLR6e3tLVT7BqfH19RXRIMJBMg5C8Sc4OJhFixaxa9cuFEVBpVLRrVveKzwKgiDkJBycvYaDZByKCDqdjtatW3Pu3DlpXYUoRHNjeBQEIX+sWbOGM2fOMG3aNAkG4nEQ4WBnPDw8RDQUokjLq+FREIS888orr/DKK69IIP6RcRDhUMhPiMVVOAiOxx6GR0EQBBEOTphxKE4eh3nz5mE2mxk7dqy0KgfxuA2PgiDAyJEj6du3Ly+88IIIBxEOknEoCKNHj5YrioMQw6MgFB0WLFhQ4mMgHofHQGrJaXlCFLITl2J4FARBMg4iHDJkHIqDcGjRogWHDx+mdOnS0prsgBgeBcF5aNiwIefPny9xfjURDo+B4lRy+syZM3L1sANieBQE5+PSpUsl8riljoNkHITHiBgeBUGQjIMIh1xnHJw1vbV27VpOnTrF119/LS0on4jhURCKD4cOHWLBggWsXLlShIMIB8k4ZMa///1v/v3vf8vVIh/fuxgeBaH44e/vj7+/v2QcRDhIxkGwD2J4FAShOAoH8Tg8BuHgbBmHrl27smDBAurVqyctJxeI4VEQSh5Tp06latWqDB06tNgeo9RxeAykdlU426iKXbt2yVUhF4jhURBKLpMmTSoxGQcRDpJxEAqIGB4FQSgJFCfhoHa2jIMzeBz27t3LsGHDpKVk810GBQXRv39/BgwYwO+//45Wq2XQoEHs2bOH+fPni2gQhBJKly5dCA8PL7bCQTwOknHIlICAAAICAuQK8A/E8CgIQk7s3r1bMg4iHOwrHGRUhfMhhkdBEEo6Ihwk45ApgwYN4r333qNdu3bSShDDoyAI+ScqKoohQ4awb98+EQ4iHPKHM3gcVq1aJa0dMTwKglBwatasWWxEgwiHx5xxkK6KoivspMKjIAhC5kgdh8eYcShq6e2zZ8/y6aefsmXLlhLZGMTwKAiCo1m+fDmRkZFMmTJFMg4iHJw/49CsWbMSKRrE8CgIQmHxxhtvOP0xiHB4jMJBDHWPFzE8CoIg5F84SB2HQuKy5jIx/4oBP7hS5QpPq55Gozze0tP/+c9/eP755+ndu3eJOOnF8CgIQlHgrbfe4s0336RTp06ScXhMqMLDw5WiunPx6nj+W/6//Fr61wzTGxkbMevOLJoam0orciBieBQEQSg4iqLYXnQYFhbm9JnZIptxsGJlVOVRHHE/8shnF7UXeaXKK+y8sZNq5mpyVtoZMTwKgiDYD5PJlHzDdXUtFt25RVY4bCq9KVPRkEqiOpHPy3/OophFhbZPd+7coVevXhw9erRYntxieBQEwZme4uvXr8+VK1eK/L4Wp24KKCIvuRo7dix169Zl/PjxtmkHPA7kuNxhj8NYVBbb/2vXrqVu3bp06NDBIftZsWLFYikaIiIimDRpEu3bt2fu3LnExsbSqlUr5s+fz+7duxk0aJCIBkEQihQqlcopRAMUrxoO+co43L9/n2+//Za9e/dy9+5dSpcuTfXq1Xn++ecZM2ZMvnaidu3aPPnkk9SsWdM2bXv17RAP/Ay8kvlyOpWOaJdou3RX7N27l9mzZxMVFUViYiLlypWjdevWjBs3jjp16hTLhieGR0EQBMeiV+k56nYURoNiVLjhesPpu9jzLBz+85//cPDgQcqUKUPbtm3R6XRERESwZ8+efAuHMWPGPLKsWlFjwZLtcu6KO74WX7s9davVajp27IjRaGT//v3s2LGD0NBQOnfuTKVKlRg+fLjTn8RieBQEobixd+9eAgMDWbJkSZHar+PuxxlfcTxRrlEwF2KJpSMdGRY/jA9iP8BdcXfKeOdpVIXVaqVRo0ZYLBZWrVple5mT1WolPDyc+vXrExERQefOnVGr1QQHB+Pt7U3v3r05e/Ysc+fOpVevXnzzzTd8//33dOnShR9//JGxY8eyefNm+vXrx2effcaTTz756MZfAn4lOQsxHdgE6qtqvN29CQgIYNasWaxdu5ZPPvmEatWq8d577zFv3jzi4+Pp1KkT06dPp1SpUrkOzIIFC5gxYwYuLi5cvHgRtVrt1A1LDI+CIAiFR6g2lN5Ve2foTk9P34S+zLozq/hnHNRqNTVq1CAyMpLJkyfTtWtXmjVrRrt27ahfvz4AderUoWrVqty8eZMTJ07wzDPPEBoaCsCRI0fo1asXR44kmx7bt2//yDa0Wi1vvfUWgYGByU7U7kBDoDlgBgKAk0Bp6Nq9K1qTlrCwsAzriI6O5ptvvqFFixb8+eef7Nixg4YNG/L+++9ne3w3b97k559/Ji4ujh07dqBWqxk9erRTiwYxPAqCIBQ+n1b4NEvRALCx9EZeTngZf51/8RYOAPPmzePTTz8lJCTEZkxRq9W89tpr/Pe//0WlUuHv78+6des4evQoKpUKi8VC/fr1OXLkCHq9njNnzgDg7/9owNzd3fnss89Yv349JpOJ1gNbc+LNE8kf7kwRDcCsNbPo26QvkFZVMn1mZO3atdSpU4fx48ezYcMG2zYDAwPZuHGjbd4333yTHi/14Kz2LNvjtrPk+4yprqefftopT1qp8CgIQknks88+o3HjxgwaNKhQtpc+Yz5z5kwguQbRabfTOS6732O/TTikz5gfOHCgSMc4z8KhadOmbN68mZiYGE6cOMGuXbvYsmULgYGBdO7cmU6dOtG+fXubcADw9vZm8ODBTJkyhZ07d2IymfD19bUVxMiOwQ8GM+36NF6a+hK6MB0AGo3GJhrg0fdXVKxY0WZorFChAgCJiYm2rMKpU6ds856+e5r5VedzUXsRqgIKcAcaTW7ExQUXGTZsGPv376dSpUpO0WjE8CgIQknmyy+/zPKzwjL3+zf3h4dka+4HuKKxz6iQX3/9lQ8++OCR6R07dmTZsmWPXzhs2LCBF154gcqVK9OzZ086d+7Mb7/9hslkIi4uzpZJUKlUnD9/nsTERNq0aWPzQ3z33XdA5t0UGXYsRQwoikJ9U31UK1WQlPyZyWTi9OnTtGzZ0pZxSC8eNJq0ctQqlSrDeidMmMCECRMAuOZ6je7Vu5OkSoJ7QPlU5QEXX7oIC5KH0URERBRp4SCGR0EQhJwpNHN/Lisd1DbZ99pcpUoVGjRoYPu/efPmRSPjMHHiRCZOnEjt2rWpVKkSly9fxmQy4enpSevWrQEoV64cTzzxBOfPnyc8PJxXX32V+vXrU6FCBcLDw3MlHKpVq0ZsbCwLFy7k1KlTtspbTzzxBKGhobz++ut069YNq9XK1atX2bBhQ54Pfkr5KcmiAaBdinBoABhI7hYBvCp40axZsyLZCMTwKAiCkDUdOnRgzZo1VKtWDavVyl9//QXA/PnzHzH3A/Y397+a8pOJuZ+r8Iv7L8QFxDFrVkaT5Nq1a/Nl7g8ICGDq1KkOj2ueXX8ffPABrVu35sGDBxw9ehSj0Yi/vz9Lly6lWrW0sanphcEzzzwDgJ+fny0L8Oyzz2a7nY8//pi6dety6dIlli1bhsWSbDIJDAxk1KhRVK5cme3bt/Pnn3/mq86CWWXmsMfhtAk9gbvAemAbUAEYAe13t8/TaIzC4N69e8yePZv27dszedcUh6sAABifSURBVPJkoqKiqFWrFl9++SUHDx5kzJgxIhoEQSjxHDhwwHZfSjX3A0yePJkZM2awY8cO4uPjHzH3W61WTpw4QUJCQgZzf/rf2Zn7U7Pequ4qGAO8SJq5/2vgOlTvU52A9gFZmvsbN26MXq9nx44duR5m+uuvv9K4cWP8/Px49913bYLI3hTpl1ylkv4FIZcvX7bLKIermqsEVA/Icb6nDE+x4eaGIhEHMTwKgiDkn3PnztnM/ban53+Y+z/66CPWrVvH8OHD8fPzY/jw4dSvXx+r1cq2bdto2bIlJpOJXbt2Ua9evUzNkS1btuThw4e8O/9dNg7fyC3XW8lZ7O7J2+yxpwcz6s7AU/G0dbWnmiNVKhW7d+/OYO5//vnnWbx4cabm/t69e7N582bmzJlD48aNUalU7N+/n8TERHx9fdm5cydlypSxaxyd4rXaVqvV9gXba2hkVXNVNIoGk8qU7Xz1TPUe+/GL4VEQBCH/hIWF8d577xEUFMTmzZuJjokm6GQQJ4JOsH3zdoeZ+xsaG7Lrxi6m75/OysCVyTddjSvf1fku2YhPwcz9MTExAPTq1YuXXnrJNv3kyZP069eP6Ohojh49SteuXUuecEgdbmnPJ2qNouEZ/TMc9DiY7Xztde0fyzGL4VEQBME+NGjQgKCgIAI3BRL8SjC72+4m0S8R9ZtqVD4qFKPiMHO/p9WTauerwe8p9zOT2S7m/vRERkZSt25d2/zpH7BTs9MlTjik+hv+qcwKyn/v/Zce1XpgUGUeWH+dPy8mvFioxyqGR0EQBPtz3+U+Uz6dgvKpkmyCrwLWUCsYgVJwr9M9wDHm/gcPHtiyCXfu3LGLuT89U6ZM4erVq7Ro0QJXV1f27dsHQKVKlejUqVPJFA6pGQd7C4ezG8/S+nprbnx1g0hNZIbP+iT0YfK9yahQFcoxSoVHQRAEx/FZ+c9QvlQgCLgAXAK8gS7AZPi/lv9H9xvdqWKuQvv27Tl//jyQ0dy/bdu2XJv7J0+ezKVLlwgNDaVt27YADBw4EKvVSlBQENu3b8fT05OAgIACH1u/fv1Yt24dx44d48GDB1SuXJkePXowevRovLy87B5LpzBHxsbG8vTTT1O2bFmCg4Ptvn6DysDfbn9zzu0cPlYfWhpa0sDYoFCOTQyPgiAIjuWh+iEta7XMcb5J9yYx9MFQu2//q6++YsmSJXzyySe8/fbbTh/PEutxSI+b4kY7fTva6dsV2jGJ4VEQBKFwOK89n6v5zrmdc8j2jUZj8r3Gza1YxLNEehx69+7NtGnTCr2wkxgeBUEQCh9vq7dd58srqdlkEQ7ZZQgsCmG3ktCZLChWBUVRsCqk/FZQFCtW2/Tk3wqgWJP/J2V68t9gMpv55NtVqNQubDkSmWFexba8gmJNtw1SlrembJu0eV9+9yuO31A4fiN5LK+rWkV931K0a17HIUEWw6MgCMLjo4GpAZ5WT5LUSdnO19LQ0iHbF+GQU4BMChdvJKAzWZNv4v8QCLbfmU23Zvw//TSf8pWwKpBkMGc6b27XqSgZLR1urircrInEP7AQEhKS69reFiyoUWdrnhTDoyAIwuPHRXHhw9gP+aL8F1nO08zQjJ6JPUU4FLZwSDRYCLupw2RRnOLgS7upMSXE8sBkAlMi1nglW+GgoLCt9DZWeK0g1C0UV8WV5obmvBv3Ln56P9t8YngUBEEoWgx5MIRwTTiBZQIf+ay+oT5hbcJw3eyY3vvU+4BWqxXhkJ4HOgvhMXrMVucQDd5uCg/ibpOagEh+iZZrtqLho4ofsb70+rSJKjjkcYhDHoeYEDuBNnvaiOFREAShCKJGzRf3vqB7YneCSgURqg3F1+JLK30rXn34KtrNjrupS8YhE+49NHPtvhGrk4iGsm5WYmPvPyoOlKz3f0vpLRlFwz+Y4T0DZgFHxfAoCIJQVCnsEXTFUTjYpY7Dkp0hGEyW1EfzdE/p/5jwyI0682f7R/5SsppLyWKbGTei/HOjunuPrM9DbaS6tws9e2bex9Wnah/OuJ3JNg7aX7SMOjxKDI+CIAhOyu+79qB3LU/12nXtYu63Kgq3b9/GYDRRoUIFXDWaApn7H3n6d7C532EZB6PJjDFVONiJ1FR/YZJVxsGsMhOqDc1x+Wp9qjGmzRhpeYIgCE6IwaTg26AtOpMVo8lqN3N/qTJl8VDAZFUw6E2P3dxfUNRF8cu7cyOCe2d+o6I2qWikZVChtuYcKi1aaXmCIAhOSKLBQuj1RAxm5zH3o4vjQUISN2/e5Nq1a4W27SInHMLPHae2ezwrly3ho5GvUdXT8Fj3Jzg4mHdHvIvhSM774agxwIIgCILjeKCzEHbLucz9iXG3MZhMQKq5v/AoUpUjLwXv59/dWvPmG28kqxq1mvEjXuP7FZu4fM/q8O2npoEyq/Cocddg2pz1l6NVtLwd/7a0QEEQBCeiJJj7i7VwaPtcN8JuXkWv1+Pu7g7A+ctRuHpVwiX2NharY8WD0WgkMDAwywqPS+OW8r3P948sp1E0TL03lXqmetIKBUEQnIhfD4U6lbk/M9FQ2BQp4RD3UEfo6fO2d1MAxD1I4EJktMO3fevWLb5b9h2JiYlA5hUex8WO41ndswSWCeSs21m0ipbmhuaMih9VaG/TFARBEOz4wFjMzf1OKRyuXjxNowoqNFpN8tO51p0yNZoReTuxwOt+eP82FZQYtNq0w/Cq2pSbD/Oembh16xaJiYk5Vnh8HGOABUEQBOfgzo0IVHdDeaLNc9wxehbLY3S4cDDoEpg88StKlSqVfIOOuc3c9X/ZZd1eZSsSG3mFRd99a5v257EQNh64kOd1+fj4MGbMGMaMkeGUgiAIQt4JP3ec5r4api5bgsVi4dvFa7mZ5FbsjrPQR1VUqVyJemUKPlJCsVo5+ttKhr0+0C77VbduXerUqSNnviAIgpBnLgXvp1+npkyb9hVqtRqNRsP4Ea9Rv3zh3GYLs6uiUI5IpVJlOKjhgwfStqYWVT4P1GIxc3T7MhZ+OxU/Pz+7Ba4wAy8IgiAUH5LN/Qno9XrbNJu5X60uVsfq8KMpX7kGx85H8cW8QB48eGibPmjAS3Rs6JXn9ZlNBoJ3LGfFwtm0bJlWN+Hy1Vt8/sM67sUnyRksCIIgFCpxD3Ucz8Lc7+gRgcVPOFSpyaY/Q7hvcmf64k3cv582lKRv7+50a14u15kHoz6JkztXsGb5Qho1apSm6q5cZ+HmI8TpVfx5JkrOYEEQBKHAXL14Gvd7Z/B6GIrXw1DKGSKoXamUXdb98P5t3O6F2Nbt9TCUql7OkZlwPehxkP0e+7miuUI9Uz066DrQQdfBIRtLUDyYuWw777/WlSq+vgD0eKEzHu4H2XzsOorKJctldQkPuLB/HRvXrMA3ZVmAUxeusnLnCcyWgiu6gnRVWLGiRi0tTRAEoZjgLOb+gt6/8iwchvgOsf2zl70s9l7Mi4kv8vWdr/FU7D+UJElxZ/bqPbzTvwO1atYEIKBjezw9TrB852luRVzg03dGo07S4+3jg1ut2sQneXDtxG9s+mUV5cuXt63raMgV1uw++dgqfj1UP2R22dkc8DhAhGsEdcx1aK9rz9jYsXhZvaTVCYIgFCNSzf0h+oLVaFCsVo7tDGT2VxOdMg6ZDsfcWmorZS1l+fze5w7ZqF7R8v36gwzr1YZGDZMLJx07fJjwhXOY1NKPJtpK+JTzwgXQXY0j0nwTQ7/+GUTDgZOX2LD3jF1VVl7WFeUaxatVXuWW6y3btMuay1zWXGan505WR6+mtqm2tDRBEAQnJtXcn1rQafjggaxat5njVw0o+SjyZLGYOb5jBT/O+V8Gn54zmfuzzK2vKLOCSE2kwzZsUDQs2hZMyNnzjP/gA6KXruP7gUPp2saPqpUq4+nmhlbtQhlPT1p4+PB08BVOzFsCwO6joaz/4/RjGwVhxcr4iuMziIb0RLtG82GFD7FgkVYnCILgpIi5Pw8Zh1TeWfEOvrt8UalUqNXqDL9Tf9RqNXU6vIraNe2V0rG3b+Buuo9XzZbZeg9MiguT56ygxqGDjOkzEE+tG4rJDGZz8m+LBUxmFLMZTBZqHL/AscAtbI3JuQ5E2Om/eKplcxIonatAJCYmEnXnNiEhIajValxcXHBxcbH9nX7ahTIXOO5+PNv1/e3+N6fdTtPK0EpanyAIgjMKhxRzPySb+8e92Yty5coByeZ+99/38PuZe7nKPBj1SZzetYo1yxdRq1Yt2/TzV66zdPtxjKbCN/efcjvFYY/DRGgiqGuqS3tde5obmhdMOFyIvcCFfTkbNUa2G4A2RThcv3yWMsYbfDf/B954ZwJ6Q/Y3+cg/djK5x0A8NVoUkwnMFpQUsaCYzKgsFjBZbNNr/fU3eo2J2/eyf9FH0u2bTBw1lRk/riXWkrN4uHjxIrs2rmDOnDk5R3sU8EPOsw2cPhCX+S6PCI+chElO0/K6TH6388/t2WudWf2tUqly3E6qcBUEoWRjVBlZ5L2IPz3+5Ir2CnWNdemg68CI+BG4Kfav1liczP1GlZEvy3/JKq9VGabPLDuTIQ+GMPH+RDSKJsvlVShZv/7rw6APeeLGE1itVhRFsf1O/Un9P8JUGYui4vzxvXR+siYff/xxrnY+Pj6eD9sG8L9/vwEWS7osQ0bxkPpZcubBTIVZH6FpUDt3ATIamblwNbeNpVKjC7p7j8wXFRZC8L5teHt7Y7FYsFgsWK3WR/62Wq0kvpZIwrcJuRMYC6SB25usxExexEqqSLGXKMru88zEmCO2U1BhKYJMcBZiXGIYUmUIYZqwRz6rZ6rHyuiV+Jp9c7Wu+VtPpr0dMxe4q4wZzP0AR48nm/sPbFvN841rZTD3X0wx9//y88qCm/uzuH95qI1U9rTSp0+fXK1mernpLPRemOXn78a9y7jYcXkXDtXM1Qi6HpSrkRWpgdckXGPGZ/9BncsqWWFhYex971P6t26XIgwsGYVCOrGQXjx4j3mDUi+0z3WsY+Mf8vXy3RhM5mwDX8HNRL9+/XJc3zntOV6s9mKO8224toEmiU0eER6ZiZGcxEpm0xyxzqympd+eI7djsVhQFCXLdUp1T8eR2vWYW7GSWYbIUVmw/IovR2T18rPvgv1QUBjmO4x9HvuynKeDrgPLopehQpXr+1decFOZMpj7582Zy/aZc3irpR9NqtbAp3SKuT8hkUhzEga/FvQYMdS2fL7N/dncvyp5WHj55ZdzXMU112sE1AjAStZZDjVq9l/bT1Vz1Uc+s1qtmXdVuCguzLgzI8/DMU2lazBzfiDjRryGq2vO788qX7487m7uWI1pwiCDvyFFNChmc3JXRcr/eXkyStLpWbz1aLJosBNNjE14Luk59nlmfeJ21HXkSfOTqNzkKc6uF42UTJe9xIojBdA//85KfBUFYZkqylKnCfaloOLLHhkre2S8crtvBc0KZredi54XsxUNAAc8DhDiFkILQwuHfJ+p5v43XjCx4qfFaP84zvcDh1K2TJkMD78aT09amLRYU8z9rUcPY/fRULYePGvX/UlKSiL81g0OHjyI0WjEYDBk+ftcy3NYh2bfNWLFyoBvBqD9VfvIOkwmE6on9U8qp9xO2RZoYWjBtLvTaGJskuud/qdiq6hN4qORg1i67UiOfTcJy+bzVoPmj2QVMpgjU7IRqeLB8L8J7IzK3uMQeeEkX4wfxcJNhwi/cTdXii23GYecUmX1TfVZEb0i16kyQSgqgiw/YiWzDJGjRFFmmTBHZsHssR3BzrwN/JjzbKU+LEWplaVyFCbPvf4xLpo0T0Ruzf0AUReCqXHoDyZkYe7/5/3s6gsdWFUQc38W96/QU0fYtXFF7uI3AZiei/nGAd9m/pHrxpsbeah+SKQmktqm2nYpXHTH6MkPv/zBtbsJmMzZN5zQe/d4vbo+OfWRLquQHHxLcvDNadkITYPa7Luv4+LVmOwVId4s3XYko2jIxcUzt1S2VGbLjS0s8l6UofJmR11H3o5/2yHmHEFwZDdF6oVUo9FIQOxIbrr5CiK+8rpMbsSXvURgXro4czvNrDVnm2ZPJdGQSOLtxBzn62Cx4JJyyjurud/T05PatWtTtWpVtFotbm5utt+pP6n/32x0k3Wsy3GdX7/yNW17ts2wrFarRaPRoAoPDy9wp3F++ogAgnev57P/DMV973GeuJOUrksiLfiqFDGhmMyoNK5UmDeZRYeOcinWJb+PVllmHMprjfTv31+udIIgCEWU026neblqzn35i88vpkl8kxyFyb7LesxWnNrc76E2UtHdTN++fXNcZ4I6gS7Vu3Db5XaW8/hafNl9fTee1sztCo/FtaMoCseDVjN90vt069aN9lM/Ia5BdZSUgKdmHDCZsZpMyaLB051yX4xB26gO7w59heaVpAEJgiCUNJobmtNG3ybbeZ7WP00nj074+vpStWpVatSoQa1atahbty4NGjSgUaNGNGnShGbNmuHikvwQ2vKJ+kyYMCHX+3H79m3a1K6XklVIeeg1pggGc5q5XzGaMvj1jBHXc70NrVbLO0P64abJ2TOY24x5aWtpvr77dZbGURUq/nfnf1mKhsciHKxWC8FBq/hhxhT8/f0BcHF1wfPNgZzu5Af1a6Gg2Lom1KU8KdX7eR5OGY3qqSds6xk+eABtakpKVRAEoSShRs3MOzOpYq6S+dOy2ZeZd2fiQt6y0qnmfrM5d0b69Ob+9N3pNqGQTiykzzg8bnM/QEBSAKtvraamuWaG6XVMdfjl1i901HXMdnnXwvzCLWYTp3atZukP39KwYUPb9IjrMSzacoREHcyJusqG5dPR6AyoNa6Exyfw465T3D9wEZ/DJ/lwWF+8vJJ9GK8P6IPn1t/481KCtCZBEIQSQk1zTYJuBDHbJ/klg+GacOqY6+Cv82ds7FjKWMvka7039R78b/6q3Jv7rZmXDHh0ZKDF1g0f7e3NzvX7s11vqrl/0ea/uB4T65AYPqN/hr3X9nLN9RoRmgjqmepRzVwtV0NYHS4cjHodWncPTAY95/at5eel86lRo4bt84sRN1my7SgGY7KiMpvNWNUqXCslF8qIvnKN+w+S63fHWTyZvmgj497qTdmyZQHo+2J3PHftZeeZOygKmIwGNG7u+dpXqREgCILgHJS2lmbS/UlA8vBBtZ0S6CXB3J+KChU1zTUfyTzknPVxMJEX/qZpeTOXDqxjXeBPGURDSFgUi7YcsYmG3PBQ8WT6T1uJiUkzdvyrawB92lYnZN962jaSIZCCIAglCbWdb2Xh0fE5iobg3esZ9/k4wny0KWUDTLbsgmLKKCIwJ5v7fcYNJe7mlRy37+ZRiguRMUU43oXAoAG9+W3LBipVSnM0njgfwdJtx3P8cjJDhwffBgZx7VqayeS5Ds8StGkVdWqIcBAEQRAcg5j7C9EcmX5s+KFTYQTuDMZizf+LPfS4M2/dfq5cCc90G/k9IQRBEAQhM8Tcn4xrYW/wxs1brN/zN4odNMuDJCMfTZzC+jUr05SQ1IUXBEEQ7IyY+wtRONRq9CS7j4Tg6pI2NKZBjQpcvHa/wOtWAS8PHskvu0+gM5hJ1Bm5G5f/L0EyDoIgCEIqYu5/TMLBzaMUf5y65pB1az1KcezCTTm7BUEQBLsTeeFvXu78DL+sTTb3p/fphYRFsXzHiTz59FLN/WNf/xeVKyev619dA3B3P8wX02cz5K23ORkZV+TjUqTy+nciQnC3xGXobrAaEtDo7+BSCF0Q0s0hCIIgpEfM/UVcOFSu05T33x2Jh4eHbVpHfz86dvAvkJEyJ9zUFsq5menYsaO0EkEQBCEDYu4vwsLBipptwdGsWr/VFoj1e/5mz/FLDtumh8pItdJWunZ+nsqVK0sLEQRBEDLFZu63w0061dyf4YbsJFlv16K2Qwpw7KqexDU7KO1TkaPnIh22LS8XPdXKedCxQwc8PT2lVQiCIAg2xNzvJMIhlXM3EuFGooPWruDjoqN2lXL4+/sXOEUkCIIgFD/E3O9A4VCjYhmS9Abu3r1b5A9YBXhpkqhfqxpt27YVQ6QgCIJQYLIz91s9KzvUpweF281hF+HQy68e8fHxBAWdLfJfrqIoNGnShObNm8uZLgiCINiFynWaMrR/10fM/XEWD4f69Gzm/vaFZ+5XhYeHS9UjQRAEoUQyf+tJDCaLXdalAtrUcmdQ/xdRFIUNf5zkwKkr9ttZRQHdPdu/HiojVbxUdOzYAR8fH+fKOAiCIAhCSaekmPtFOAiCIAiCHSnu5n4RDoIgCEKJRcz9+dgP8TgIgiAIJZlkc39Qkd/PomLuF+EgCIIgCEKukSIGgiAIgiCIcBAEQRAEQYSDIAiCIAgiHARBEARBEOEgCIIgCIIIB0EQBEEQRDgIgiAIgiCIcBAEQRAEQYSDIAiCIAiFzP8HYAALhZDE7ukAAAAASUVORK5CYII=;movable=0;resizable=0;rotatable=0;deletable=0;editable=0;locked=1;connectable=0;" vertex="1" parent="1">
          <mxGeometry x="190" y="80" width="526" height="285" as="geometry" />
        </mxCell>
        <mxCell id="5isMwdoa0sT_e5EpmKYh-3" value="Unbenannte Ebene" parent="0" />
        <mxCell id="5isMwdoa0sT_e5EpmKYh-4" value="" style="shape=flexArrow;endArrow=classic;html=1;rounded=0;fillColor=#FF0000;strokeColor=#b85450;" edge="1" parent="5isMwdoa0sT_e5EpmKYh-3">
          <mxGeometry width="50" height="50" relative="1" as="geometry">
            <mxPoint x="630" y="130" as="sourcePoint" />
            <mxPoint x="480" y="200" as="targetPoint" />
          </mxGeometry>
        </mxCell>
        <mxCell id="5isMwdoa0sT_e5EpmKYh-5" value="" style="shape=flexArrow;endArrow=classic;html=1;rounded=0;fillColor=#FF0000;strokeColor=#b85450;" edge="1" parent="5isMwdoa0sT_e5EpmKYh-3">
          <mxGeometry width="50" height="50" relative="1" as="geometry">
            <mxPoint x="400" y="190" as="sourcePoint" />
            <mxPoint x="280" y="140" as="targetPoint" />
          </mxGeometry>
        </mxCell>
        <mxCell id="5isMwdoa0sT_e5EpmKYh-6" value="" style="shape=flexArrow;endArrow=classic;html=1;rounded=0;fillColor=#FF0000;strokeColor=#b85450;" edge="1" parent="5isMwdoa0sT_e5EpmKYh-3">
          <mxGeometry width="50" height="50" relative="1" as="geometry">
            <mxPoint x="630" y="310" as="sourcePoint" />
            <mxPoint x="290" y="310" as="targetPoint" />
          </mxGeometry>
        </mxCell>
        <mxCell id="5isMwdoa0sT_e5EpmKYh-7" value="" style="shape=flexArrow;endArrow=classic;html=1;rounded=0;fillColor=#FF0000;strokeColor=#b85450;" edge="1" parent="5isMwdoa0sT_e5EpmKYh-3">
          <mxGeometry width="50" height="50" relative="1" as="geometry">
            <mxPoint x="250" y="270" as="sourcePoint" />
            <mxPoint x="250" y="180" as="targetPoint" />
          </mxGeometry>
        </mxCell>
        <mxCell id="5isMwdoa0sT_e5EpmKYh-8" value="Root-Bridge" style="text;html=1;strokeColor=none;fillColor=default;align=center;verticalAlign=middle;whiteSpace=wrap;rounded=0;fontStyle=1;fontSize=13;" vertex="1" parent="5isMwdoa0sT_e5EpmKYh-3">
          <mxGeometry x="200" y="130" width="60" height="30" as="geometry" />
        </mxCell>
      </root>
    </mxGraphModel>
  </diagram>
</mxfile>
